<?xml version="1.0" standalone="no"?>
<!DOCTYPE svg PUBLIC "-//W3C//DTD SVG 20010904//EN"
 "http://www.w3.org/TR/2001/REC-SVG-20010904/DTD/svg10.dtd">
<svg version="1.0" xmlns="http://www.w3.org/2000/svg"
 width="512.000000pt" height="512.000000pt" viewBox="0 0 512.000000 512.000000"
 preserveAspectRatio="xMidYMid meet">

<g transform="translate(0.000000,512.000000) scale(0.100000,-0.100000)" fill="#4048FF"  stroke="none">
<path d="M1925 4954 c-376 -35 -621 -102 -907 -245 -672 -337 -1069 -979
-1010 -1632 32 -350 149 -618 408 -935 l28 -33 -206 -207 c-113 -114 -214
-222 -223 -241 -22 -45 -14 -113 20 -157 52 -69 -10 -66 1195 -61 1166 4 1136
3 1382 57 978 217 1640 1026 1537 1875 -96 790 -807 1429 -1736 1560 -105 15
-408 27 -488 19z m1209 -1308 c90 -68 86 -190 -8 -260 -27 -21 -35 -21 -1032
-24 -1112 -3 -1047 -6 -1100 64 -24 31 -29 47 -29 94 0 46 5 63 27 92 55 73
-21 68 1099 65 l1006 -2 37 -29z m-640 -640 c90 -68 86 -190 -8 -260 -27 -21
-38 -21 -712 -24 -759 -3 -728 -5 -780 64 -24 31 -29 47 -29 94 0 46 5 63 27
92 54 71 15 68 779 65 l686 -2 37 -29z"/>
<path d="M4472 3052 c-35 -378 -165 -704 -404 -1014 -294 -381 -761 -683
-1273 -823 -292 -80 -468 -95 -1103 -95 l-503 0 42 -63 c99 -146 278 -336 414
-439 280 -212 633 -363 985 -422 203 -33 304 -36 1329 -36 979 0 1028 1 1067
19 77 35 115 131 79 202 -9 19 -110 127 -223 241 l-206 207 28 33 c205 251
316 463 374 713 123 531 -42 1067 -454 1479 -49 48 -100 96 -115 106 l-25 19
-12 -127z"/>
</g>
</svg>
